<mxfile host="app.diagrams.net" modified="2024-03-25T14:38:25.780Z" agent="Mozilla/5.0 (Windows NT 10.0; Win64; x64) AppleWebKit/537.36 (KHTML, like Gecko) Chrome/120.0.0.0 YaBrowser/24.1.0.0 Safari/537.36" etag="uDgCjuTObIqZqvIYIzTZ" version="24.1.0" type="github">
  <diagram name="Page-1" id="b520641d-4fe3-3701-9064-5fc419738815">
    <mxGraphModel dx="636" dy="334" grid="1" gridSize="10" guides="1" tooltips="1" connect="1" arrows="1" fold="1" page="1" pageScale="1" pageWidth="1100" pageHeight="850" background="none" math="0" shadow="0">
      <root>
        <mxCell id="0" />
        <mxCell id="1" parent="0" />
        <mxCell id="-JmOljmzNNRE6zTblJVj-36" value="" style="rounded=0;whiteSpace=wrap;html=1;" vertex="1" parent="1">
          <mxGeometry x="310" y="280" width="250" height="190" as="geometry" />
        </mxCell>
        <mxCell id="-JmOljmzNNRE6zTblJVj-37" value="Смартфоны" style="rounded=0;whiteSpace=wrap;html=1;" vertex="1" parent="1">
          <mxGeometry x="320" y="340" width="110" height="25" as="geometry" />
        </mxCell>
        <mxCell id="-JmOljmzNNRE6zTblJVj-38" value="Лэтуаль" style="rounded=0;whiteSpace=wrap;html=1;" vertex="1" parent="1">
          <mxGeometry x="440" y="340" width="110" height="25" as="geometry" />
        </mxCell>
        <mxCell id="-JmOljmzNNRE6zTblJVj-39" value="Детские товары" style="rounded=0;whiteSpace=wrap;html=1;" vertex="1" parent="1">
          <mxGeometry x="320" y="370" width="110" height="25" as="geometry" />
        </mxCell>
        <mxCell id="-JmOljmzNNRE6zTblJVj-40" value="Электроника" style="rounded=0;whiteSpace=wrap;html=1;" vertex="1" parent="1">
          <mxGeometry x="440" y="370" width="110" height="25" as="geometry" />
        </mxCell>
        <mxCell id="-JmOljmzNNRE6zTblJVj-41" value="Электроинструменты" style="rounded=0;whiteSpace=wrap;html=1;" vertex="1" parent="1">
          <mxGeometry x="320" y="400" width="230" height="25" as="geometry" />
        </mxCell>
        <mxCell id="-JmOljmzNNRE6zTblJVj-42" value="Назад" style="rounded=0;whiteSpace=wrap;html=1;" vertex="1" parent="1">
          <mxGeometry x="320" y="430" width="230" height="25" as="geometry" />
        </mxCell>
        <mxCell id="-JmOljmzNNRE6zTblJVj-43" value="Level 1" style="rounded=0;whiteSpace=wrap;html=1;" vertex="1" parent="1">
          <mxGeometry x="375" y="250" width="120" height="20" as="geometry" />
        </mxCell>
        <mxCell id="-JmOljmzNNRE6zTblJVj-44" value="" style="rounded=0;whiteSpace=wrap;html=1;" vertex="1" parent="1">
          <mxGeometry x="600" y="345" width="250" height="125" as="geometry" />
        </mxCell>
        <mxCell id="-JmOljmzNNRE6zTblJVj-46" value="Телевизоры" style="rounded=0;whiteSpace=wrap;html=1;" vertex="1" parent="1">
          <mxGeometry x="610" y="410" width="110" height="20" as="geometry" />
        </mxCell>
        <mxCell id="-JmOljmzNNRE6zTblJVj-47" value="Ноутбуки" style="rounded=0;whiteSpace=wrap;html=1;" vertex="1" parent="1">
          <mxGeometry x="730" y="410" width="110" height="20" as="geometry" />
        </mxCell>
        <mxCell id="-JmOljmzNNRE6zTblJVj-48" value="Назад к выбору категорий" style="rounded=0;whiteSpace=wrap;html=1;" vertex="1" parent="1">
          <mxGeometry x="610" y="440" width="230" height="20" as="geometry" />
        </mxCell>
        <mxCell id="-JmOljmzNNRE6zTblJVj-49" value="Level 2" style="rounded=0;whiteSpace=wrap;html=1;" vertex="1" parent="1">
          <mxGeometry x="665" y="310" width="120" height="20" as="geometry" />
        </mxCell>
      </root>
    </mxGraphModel>
  </diagram>
</mxfile>
